<mxfile host="app.diagrams.net" agent="Mozilla/5.0 (Windows NT 10.0; Win64; x64) AppleWebKit/537.36 (KHTML, like Gecko) Chrome/128.0.0.0 Safari/537.36" version="24.7.8">
  <diagram id="C5RBs43oDa-KdzZeNtuy" name="Page-1">
    <mxGraphModel dx="393" dy="614" grid="1" gridSize="10" guides="1" tooltips="1" connect="1" arrows="1" fold="1" page="1" pageScale="1" pageWidth="827" pageHeight="1169" math="0" shadow="0">
      <root>
        <mxCell id="WIyWlLk6GJQsqaUBKTNV-0" />
        <mxCell id="WIyWlLk6GJQsqaUBKTNV-1" parent="WIyWlLk6GJQsqaUBKTNV-0" />
        <mxCell id="STa-1HgvMj_Jm-xYyMJM-17" style="edgeStyle=orthogonalEdgeStyle;rounded=0;orthogonalLoop=1;jettySize=auto;html=1;exitX=0.5;exitY=1;exitDx=0;exitDy=0;exitPerimeter=0;entryX=0.5;entryY=0;entryDx=0;entryDy=0;" edge="1" parent="WIyWlLk6GJQsqaUBKTNV-1" source="STa-1HgvMj_Jm-xYyMJM-0" target="STa-1HgvMj_Jm-xYyMJM-1">
          <mxGeometry relative="1" as="geometry" />
        </mxCell>
        <mxCell id="STa-1HgvMj_Jm-xYyMJM-0" value="INICIO" style="strokeWidth=2;html=1;shape=mxgraph.flowchart.start_1;whiteSpace=wrap;" vertex="1" parent="WIyWlLk6GJQsqaUBKTNV-1">
          <mxGeometry x="350" y="50" width="100" height="60" as="geometry" />
        </mxCell>
        <mxCell id="STa-1HgvMj_Jm-xYyMJM-18" style="edgeStyle=orthogonalEdgeStyle;rounded=0;orthogonalLoop=1;jettySize=auto;html=1;exitX=0.5;exitY=1;exitDx=0;exitDy=0;entryX=0.5;entryY=0;entryDx=0;entryDy=0;" edge="1" parent="WIyWlLk6GJQsqaUBKTNV-1" source="STa-1HgvMj_Jm-xYyMJM-1" target="STa-1HgvMj_Jm-xYyMJM-4">
          <mxGeometry relative="1" as="geometry" />
        </mxCell>
        <mxCell id="STa-1HgvMj_Jm-xYyMJM-1" value="&lt;span style=&quot;background-color: initial;&quot;&gt;numero_usuario&lt;/span&gt;&lt;div&gt;serie = 1&lt;br&gt;&lt;span style=&quot;background-color: initial;&quot;&gt;i = 10&lt;/span&gt;&lt;br&gt;&lt;div&gt;resultado_previo = 0&lt;/div&gt;&lt;/div&gt;&lt;div&gt;resultado = 0&lt;br&gt;&lt;/div&gt;" style="rounded=0;whiteSpace=wrap;html=1;spacingLeft=10;align=left;" vertex="1" parent="WIyWlLk6GJQsqaUBKTNV-1">
          <mxGeometry x="310" y="150" width="180" height="90" as="geometry" />
        </mxCell>
        <mxCell id="STa-1HgvMj_Jm-xYyMJM-19" style="edgeStyle=orthogonalEdgeStyle;rounded=0;orthogonalLoop=1;jettySize=auto;html=1;exitX=0.5;exitY=1;exitDx=0;exitDy=0;entryX=0.5;entryY=0;entryDx=0;entryDy=0;" edge="1" parent="WIyWlLk6GJQsqaUBKTNV-1" source="STa-1HgvMj_Jm-xYyMJM-4" target="STa-1HgvMj_Jm-xYyMJM-5">
          <mxGeometry relative="1" as="geometry" />
        </mxCell>
        <mxCell id="STa-1HgvMj_Jm-xYyMJM-4" value="numero_usuario" style="shape=parallelogram;perimeter=parallelogramPerimeter;whiteSpace=wrap;html=1;fixedSize=1;" vertex="1" parent="WIyWlLk6GJQsqaUBKTNV-1">
          <mxGeometry x="340" y="280" width="120" height="60" as="geometry" />
        </mxCell>
        <mxCell id="STa-1HgvMj_Jm-xYyMJM-11" style="edgeStyle=orthogonalEdgeStyle;rounded=0;orthogonalLoop=1;jettySize=auto;html=1;exitX=1;exitY=0.5;exitDx=0;exitDy=0;entryX=0.5;entryY=0;entryDx=0;entryDy=0;" edge="1" parent="WIyWlLk6GJQsqaUBKTNV-1" source="STa-1HgvMj_Jm-xYyMJM-5" target="STa-1HgvMj_Jm-xYyMJM-6">
          <mxGeometry relative="1" as="geometry" />
        </mxCell>
        <mxCell id="STa-1HgvMj_Jm-xYyMJM-23" style="edgeStyle=orthogonalEdgeStyle;rounded=0;orthogonalLoop=1;jettySize=auto;html=1;exitX=0;exitY=0.5;exitDx=0;exitDy=0;entryX=0.5;entryY=0;entryDx=0;entryDy=0;" edge="1" parent="WIyWlLk6GJQsqaUBKTNV-1" source="STa-1HgvMj_Jm-xYyMJM-5" target="STa-1HgvMj_Jm-xYyMJM-22">
          <mxGeometry relative="1" as="geometry" />
        </mxCell>
        <mxCell id="STa-1HgvMj_Jm-xYyMJM-5" value="&lt;div&gt;&lt;span style=&quot;background-color: initial;&quot;&gt;resultado&lt;/span&gt;&lt;br&gt;&lt;/div&gt;&lt;div&gt;&amp;lt;&amp;nbsp;&lt;/div&gt;&lt;div&gt;numero_usuario&lt;/div&gt;" style="rhombus;whiteSpace=wrap;html=1;" vertex="1" parent="WIyWlLk6GJQsqaUBKTNV-1">
          <mxGeometry x="335" y="410" width="130" height="120" as="geometry" />
        </mxCell>
        <mxCell id="STa-1HgvMj_Jm-xYyMJM-28" style="edgeStyle=orthogonalEdgeStyle;rounded=0;orthogonalLoop=1;jettySize=auto;html=1;exitX=0.5;exitY=1;exitDx=0;exitDy=0;entryX=0.5;entryY=0;entryDx=0;entryDy=0;" edge="1" parent="WIyWlLk6GJQsqaUBKTNV-1" source="STa-1HgvMj_Jm-xYyMJM-6" target="STa-1HgvMj_Jm-xYyMJM-9">
          <mxGeometry relative="1" as="geometry" />
        </mxCell>
        <mxCell id="STa-1HgvMj_Jm-xYyMJM-6" value="resultado_&lt;span style=&quot;background-color: initial;&quot;&gt;previo = resultado + 1&lt;/span&gt;" style="rounded=0;whiteSpace=wrap;html=1;align=left;spacingLeft=10;" vertex="1" parent="WIyWlLk6GJQsqaUBKTNV-1">
          <mxGeometry x="480" y="530" width="200" height="30" as="geometry" />
        </mxCell>
        <mxCell id="STa-1HgvMj_Jm-xYyMJM-30" style="edgeStyle=orthogonalEdgeStyle;rounded=0;orthogonalLoop=1;jettySize=auto;html=1;exitX=0.5;exitY=1;exitDx=0;exitDy=0;entryX=0.5;entryY=0;entryDx=0;entryDy=0;" edge="1" parent="WIyWlLk6GJQsqaUBKTNV-1" source="STa-1HgvMj_Jm-xYyMJM-7" target="STa-1HgvMj_Jm-xYyMJM-8">
          <mxGeometry relative="1" as="geometry" />
        </mxCell>
        <mxCell id="STa-1HgvMj_Jm-xYyMJM-7" value="&lt;div style=&quot;forced-color-adjust: none; color: rgb(0, 0, 0); font-family: Helvetica; font-size: 12px; font-style: normal; font-variant-ligatures: normal; font-variant-caps: normal; font-weight: 400; letter-spacing: normal; orphans: 2; text-align: left; text-indent: 0px; text-transform: none; widows: 2; word-spacing: 0px; -webkit-text-stroke-width: 0px; white-space: normal; background-color: rgb(251, 251, 251); text-decoration-thickness: initial; text-decoration-style: initial; text-decoration-color: initial;&quot;&gt;resultado = resultado + serie&lt;/div&gt;" style="rounded=0;whiteSpace=wrap;html=1;" vertex="1" parent="WIyWlLk6GJQsqaUBKTNV-1">
          <mxGeometry x="480" y="650" width="200" height="30" as="geometry" />
        </mxCell>
        <mxCell id="STa-1HgvMj_Jm-xYyMJM-16" style="edgeStyle=orthogonalEdgeStyle;rounded=0;orthogonalLoop=1;jettySize=auto;html=1;exitX=0.5;exitY=1;exitDx=0;exitDy=0;entryX=0.5;entryY=0;entryDx=0;entryDy=0;" edge="1" parent="WIyWlLk6GJQsqaUBKTNV-1" source="STa-1HgvMj_Jm-xYyMJM-8" target="STa-1HgvMj_Jm-xYyMJM-5">
          <mxGeometry relative="1" as="geometry">
            <Array as="points">
              <mxPoint x="580" y="760" />
              <mxPoint x="700" y="760" />
              <mxPoint x="700" y="390" />
              <mxPoint x="400" y="390" />
            </Array>
          </mxGeometry>
        </mxCell>
        <mxCell id="STa-1HgvMj_Jm-xYyMJM-8" value="&lt;span style=&quot;color: rgb(0, 0, 0); font-family: Helvetica; font-size: 12px; font-style: normal; font-variant-ligatures: normal; font-variant-caps: normal; font-weight: 400; letter-spacing: normal; orphans: 2; text-align: left; text-indent: 0px; text-transform: none; widows: 2; word-spacing: 0px; -webkit-text-stroke-width: 0px; white-space: normal; background-color: rgb(251, 251, 251); text-decoration-thickness: initial; text-decoration-style: initial; text-decoration-color: initial; display: inline !important; float: none;&quot;&gt;i = i * 10&lt;/span&gt;" style="rounded=0;whiteSpace=wrap;html=1;" vertex="1" parent="WIyWlLk6GJQsqaUBKTNV-1">
          <mxGeometry x="480" y="710" width="200" height="30" as="geometry" />
        </mxCell>
        <mxCell id="STa-1HgvMj_Jm-xYyMJM-29" style="edgeStyle=orthogonalEdgeStyle;rounded=0;orthogonalLoop=1;jettySize=auto;html=1;exitX=0.5;exitY=1;exitDx=0;exitDy=0;entryX=0.5;entryY=0;entryDx=0;entryDy=0;" edge="1" parent="WIyWlLk6GJQsqaUBKTNV-1" source="STa-1HgvMj_Jm-xYyMJM-9" target="STa-1HgvMj_Jm-xYyMJM-7">
          <mxGeometry relative="1" as="geometry" />
        </mxCell>
        <mxCell id="STa-1HgvMj_Jm-xYyMJM-9" value="&lt;span style=&quot;color: rgb(0, 0, 0); font-family: Helvetica; font-size: 12px; font-style: normal; font-variant-ligatures: normal; font-variant-caps: normal; font-weight: 400; letter-spacing: normal; orphans: 2; text-align: left; text-indent: 0px; text-transform: none; widows: 2; word-spacing: 0px; -webkit-text-stroke-width: 0px; white-space: normal; background-color: rgb(251, 251, 251); text-decoration-thickness: initial; text-decoration-style: initial; text-decoration-color: initial; display: inline !important; float: none;&quot;&gt;serie = serie + ( 1 * i )&lt;/span&gt;" style="rounded=0;whiteSpace=wrap;html=1;" vertex="1" parent="WIyWlLk6GJQsqaUBKTNV-1">
          <mxGeometry x="480" y="590" width="200" height="30" as="geometry" />
        </mxCell>
        <mxCell id="STa-1HgvMj_Jm-xYyMJM-25" style="edgeStyle=orthogonalEdgeStyle;rounded=0;orthogonalLoop=1;jettySize=auto;html=1;exitX=1;exitY=0.75;exitDx=0;exitDy=0;entryX=0.5;entryY=0;entryDx=0;entryDy=0;" edge="1" parent="WIyWlLk6GJQsqaUBKTNV-1" source="STa-1HgvMj_Jm-xYyMJM-22" target="STa-1HgvMj_Jm-xYyMJM-26">
          <mxGeometry relative="1" as="geometry">
            <mxPoint x="230" y="670" as="targetPoint" />
            <Array as="points">
              <mxPoint x="290" y="570" />
              <mxPoint x="230" y="570" />
            </Array>
          </mxGeometry>
        </mxCell>
        <mxCell id="STa-1HgvMj_Jm-xYyMJM-22" value="Resultado: &amp;lt;resultado_previo&amp;gt;" style="shape=document;whiteSpace=wrap;html=1;boundedLbl=1;" vertex="1" parent="WIyWlLk6GJQsqaUBKTNV-1">
          <mxGeometry x="170" y="515" width="120" height="80" as="geometry" />
        </mxCell>
        <mxCell id="STa-1HgvMj_Jm-xYyMJM-26" value="FIN" style="ellipse;whiteSpace=wrap;html=1;" vertex="1" parent="WIyWlLk6GJQsqaUBKTNV-1">
          <mxGeometry x="185" y="650" width="90" height="60" as="geometry" />
        </mxCell>
      </root>
    </mxGraphModel>
  </diagram>
</mxfile>
